<?xml version="1.0" standalone="no"?>
<!DOCTYPE svg PUBLIC "-//W3C//DTD SVG 1.1//EN" "http://www.w3.org/Graphics/SVG/1.1/DTD/svg11.dtd" >
<svg xmlns="http://www.w3.org/2000/svg">
<metadata></metadata>
<defs>
<font id="monarklightregular" horiz-adv-x="1193" >
<font-face units-per-em="2048" ascent="1638" descent="-410" />
<missing-glyph horiz-adv-x="471" />
<glyph horiz-adv-x="2048" />
<glyph horiz-adv-x="2048" />
<glyph unicode="&#xd;" horiz-adv-x="471" />
<glyph unicode=" "  horiz-adv-x="471" />
<glyph unicode="&#x09;" horiz-adv-x="471" />
<glyph unicode="&#xa0;" horiz-adv-x="471" />
<glyph unicode="!" horiz-adv-x="393" d="M123 0v147h147v-147h-147zM123 313v1221h147v-1221h-147z" />
<glyph unicode="&#x22;" horiz-adv-x="593" d="M82 1315v219h147v-375h-112zM365 1315v219h147v-375h-113z" />
<glyph unicode="#" horiz-adv-x="1427" d="M102 465v147h277v293h-277v148h277v217h147v-217h381v217h148v-217h270v-148h-270v-293h270v-147h-270v-205h-148v205h-381v-205h-147v205h-277zM526 612h381v293h-381v-293z" />
<glyph unicode="$" horiz-adv-x="1323" d="M102 1108q0 168 136.5 298t357.5 150v91h127v-91q199 -20 337 -142t154 -290h-149q-20 123 -129 215q-119 98 -277 99q-174 0 -297 -111q-113 -100 -112 -219q0 -158 182 -221q70 -23 170 -43q119 -31 295 -76q324 -78 324 -324q0 -168 -141.5 -303t-356.5 -153v-101 h-127v103q-205 16 -337 133t-150 285h149q20 -121 131 -207q119 -94 277 -95q174 0 297 115q111 104 110 223q0 141 -188 193q-248 63 -553 147q-96 37 -160 119q-70 90 -70 205z" />
<glyph unicode="%" horiz-adv-x="2027" d="M61 1194q0 154 125 257t293 103t293 -103t125 -257t-125 -257t-293 -103t-293 103t-125 257zM209 1194q0 -84 74 -145q80 -68 196 -68q117 0 197 68q74 61 74 145q0 82 -74 145q-80 68 -197 68t-193.5 -65.5t-76.5 -147.5zM586 0v29q0 193 76 295l595 976q35 57 35 177 v57h152v-57q0 -141 -66 -246l-590 -969q-53 -88 -53 -239v-23h-149zM1133 336q0 154 127 260q121 100 290 100q168 0 289 -100q127 -106 127 -260t-124 -257.5t-292 -103.5q-170 0 -290 103q-127 104 -127 258zM1280 336q0 -82 76 -147.5t194 -65.5q117 0 193 65.5t76 147.5 q0 84 -76 148.5t-193 64.5q-119 0 -194.5 -64.5t-75.5 -148.5z" />
<glyph unicode="&#x26;" horiz-adv-x="1417" d="M82 453v110q0 188 205 311q-115 141 -115 287v45q0 184 164 277q133 74 344 73q485 0 520 -309h-149q-37 162 -371 162q-360 0 -361 -203v-30q0 -96 56 -172q25 -33 119 -121l546 -516q8 14 16.5 31.5t8.5 68.5v113h141l-2 -113q-2 -111 -49 -213l160 -154 q39 -36 41 -102h-166q0 25 -49 70l-80 75q-82 -90 -170 -125q-96 -39 -250 -38q-225 0 -389 131q-170 137 -170 342zM229 453q0 -133 119 -235.5t295 -102.5q102 0 191 35q27 12 51 30q10 11 71 64l-573 540q-154 -59 -154 -247v-84z" />
<glyph unicode="'" horiz-adv-x="311" d="M82 1346v188h147v-344h-112z" />
<glyph unicode="(" horiz-adv-x="700" d="M102 365v804q0 193 152 328t364 150v-148q-160 -14 -264 -110.5t-104 -219.5v-804q0 -123 104.5 -219.5t263.5 -110.5v-148q-213 14 -364.5 149.5t-151.5 328.5z" />
<glyph unicode=")" horiz-adv-x="700" d="M82 35q160 14 264.5 110.5t104.5 219.5v804q0 123 -104.5 219.5t-264.5 110.5v148q213 -14 364.5 -149.5t151.5 -328.5v-804q0 -193 -151.5 -328t-364.5 -150v148z" />
<glyph unicode="*" horiz-adv-x="866" d="M61 1280l23 86l305 -82v250h88v-250l303 82l25 -86l-291 -80l172 -199l-68 -57l-186 213l-186 -213l-66 57l172 199z" />
<glyph unicode="+" horiz-adv-x="796" d="M82 684v147h242v242h147v-242h244v-147h-244v-244h-147v244h-242z" />
<glyph unicode="," horiz-adv-x="428" d="M61 -74h17q100 0 100 74v119h148v-119q0 -96 -73 -158.5t-175 -62.5h-17v147z" />
<glyph unicode="-" horiz-adv-x="653" d="M82 684v147h489v-147h-489z" />
<glyph unicode="." horiz-adv-x="352" d="M102 0v152h148v-152h-148z" />
<glyph unicode="/" horiz-adv-x="819" d="M41 -104l582 1742h155l-581 -1742h-156z" />
<glyph unicode="0" horiz-adv-x="1275" d="M82 455v622q0 203 166 340t391 137t390 -137t165 -340v-622q0 -201 -165 -338t-390 -137t-391 137t-166 338zM229 455q0 -129 118 -228.5t292 -99.5t291 98.5t117 229.5v622q0 131 -117 230.5t-291 99.5t-292 -99.5t-118 -230.5v-622z" />
<glyph unicode="1" horiz-adv-x="595" d="M82 1233v149q176 4 205 154h145v-1538h-147v1329q-72 -94 -203 -94z" />
<glyph unicode="2" horiz-adv-x="1282" d="M82 1126q18 186 181 309.5t376 123.5q231 0 396 -134.5t165 -324.5q0 -145 -106 -242l-803 -713h891v-147h-1063v182l866 781q68 59 68 124v5q0 121 -113 217q-123 102 -301 102q-162 0 -274.5 -82t-133.5 -201h-149z" />
<glyph unicode="3" horiz-adv-x="1302" d="M82 410h149q20 -119 131 -201q117 -88 277 -88q176 0 301 108q113 96 113 213v146q0 76 -45 114q-33 31 -72 31h-371v148h369q55 0 87 46t32 113v58q0 119 -105 209q-117 102 -309 102q-160 0 -273.5 -83t-134.5 -200h-149q18 186 184 312q160 119 373 118 q233 0 397 -134t164 -324v-58q0 -178 -110 -237q111 -66 110 -215v-146q0 -186 -167 -327.5t-394 -141.5q-213 0 -373 123q-166 125 -184 314z" />
<glyph unicode="4" horiz-adv-x="1335" d="M61 436v246l719 852h275v-950h239v-148h-239v-436h-148v436h-846zM209 584h698v805h-57l-641 -756v-49z" />
<glyph unicode="5" horiz-adv-x="1273" d="M82 412h149q23 -119 146 -203t285 -84q170 0 280 96q102 92 102 213v121q0 125 -94 203q-104 86 -286 86q-100 0 -189 -31q-106 -37 -143 -106h-187v827h949v-148h-801v-532q111 139 371 139q211 0 364 -121q164 -127 164 -317v-121q0 -197 -157.5 -328t-372.5 -131 q-217 0 -386 123q-174 127 -194 314z" />
<glyph unicode="6" horiz-adv-x="1275" d="M82 451v628q0 203 166 340t391 137q213 0 375 -123.5t180 -310.5h-150q-20 119 -129 201q-117 86 -276 86q-174 0 -292 -99.5t-118 -230.5v-313q147 184 412 184q219 0 383 -127q170 -135 170 -329v-43q0 -203 -164 -340.5t-389 -137.5t-389 136q-170 139 -170 342z M229 451q0 -131 117 -228q121 -102 295 -102t293 102q113 97 113 228v43q0 121 -117 215t-289 94q-117 0 -256 -78t-156 -164v-110z" />
<glyph unicode="7" horiz-adv-x="1034" d="M41 1386v148h952v-143l-465 -1139q-45 -109 -45 -229v-23h-149v31q0 135 55 272l440 1083h-788z" />
<glyph unicode="8" horiz-adv-x="1275" d="M82 453q0 84 37 170q47 111 137 157q-88 59 -135 156q-39 78 -39 151q0 203 170 338q164 131 389 131q223 0 388 -133t165 -336q0 -78 -37 -157q-45 -100 -131 -160q84 -59 129 -158q39 -83 39 -159q0 -203 -164 -341.5t-389 -138.5q-227 0 -393 138.5t-166 341.5z M229 453q0 -133 115 -230q121 -102 297 -102q174 0 293 102q113 97 113 230q0 92 -58 161q-70 82 -201 82h-344q-88 0 -151.5 -77.5t-63.5 -165.5zM229 1087q0 -80 68 -161.5t147 -81.5h344q129 0 201 84q58 69 58 159q0 129 -113 224q-119 98 -293 98q-176 0 -294 -96 t-118 -226z" />
<glyph unicode="9" horiz-adv-x="1275" d="M82 408h149q20 -119 133 -203t273 -84q176 0 295 102q115 96 115 228v288q-109 -92 -197 -125.5t-215 -33.5q-219 0 -383 129q-170 133 -170 327v43q0 203 164 340t389 137t392 -137t167 -340v-628q0 -203 -166 -340.5t-391 -137.5q-213 0 -375 124t-180 311zM229 1036 q0 -121 117 -215t289 -94q137 0 252 64q109 57 160 145v143q0 131 -115 228q-121 102 -297 102q-174 0 -290 -99.5t-116 -230.5v-43z" />
<glyph unicode=":" horiz-adv-x="352" d="M102 301v150h148v-150h-148zM102 1161v152h148v-152h-148z" />
<glyph unicode=";" horiz-adv-x="448" d="M82 -6v147h16q100 0 101 74v119h147v-119q0 -96 -72.5 -158.5t-175.5 -62.5h-16zM199 1161v152h147v-152h-147z" />
<glyph unicode="&#x3c;" horiz-adv-x="890" d="M61 700l674 564l94 -115l-536 -449l534 -446l-94 -115z" />
<glyph unicode="=" horiz-adv-x="804" d="M82 477v148h641v-148h-641zM82 856v148h639v-148h-639z" />
<glyph unicode="&#x3e;" horiz-adv-x="888" d="M61 254l537 446l-537 449l95 113l671 -562l-671 -561z" />
<glyph unicode="?" horiz-adv-x="1243" d="M61 1081q0 205 170 342q164 133 390 133q217 0 385 -133q176 -136 176 -333q0 -182 -236 -359q-63 -47 -176 -131q-94 -80 -94 -154v-133h-148v133q0 98 70 187q51 66 166 147q61 43 178 135q92 86 92 175q0 123 -119 219q-125 98 -294 98q-176 0 -294 -97.5t-118 -228.5 q0 -12 4 -32l-145 -31q-6 37 -7 63zM526 0v145h150v-145h-150z" />
<glyph unicode="@" horiz-adv-x="1615" d="M102 424v637q0 197 160 336q154 133 373 141h323q225 0 390 -137t165 -340v-621q0 -197 -155.5 -331t-376.5 -134q-219 0 -381 134.5t-162 328.5v183q0 199 172 335q164 131 385 131q100 0 197 -36q117 -43 174 -123v133q0 131 -116.5 230.5t-291.5 99.5h-331 q-162 -10 -269.5 -107.5t-107.5 -222.5v-637q0 -283 127 -426h-154q-121 180 -121 426zM586 438q0 -123 113.5 -219t281.5 -96t276 98q105 92 105 219v183q0 131 -98 221q-104 96 -269 96q-172 0 -290.5 -97.5t-118.5 -221.5v-183z" />
<glyph unicode="A" horiz-adv-x="1355" d="M20 0l590 1534h142l583 -1534h-151l-152 385h-704l-148 -385h-160zM377 518h606l-303 789z" />
<glyph unicode="B" horiz-adv-x="1280" d="M102 0v1534h629q190 0 322 -111q145 -119 145 -315q0 -242 -203 -324q109 -39 170 -151q54 -96 54 -207q0 -190 -148.5 -308t-384.5 -118h-584zM250 147h436q182 0 283.5 75t101.5 204q0 102 -78 192q-84 96 -190 97h-553v-568zM250 862h553q111 0 179.5 71t68.5 175 q0 278 -318 278h-2h-481v-524z" />
<glyph unicode="C" horiz-adv-x="1241" d="M61 453v624q0 205 166 342t394 137q211 0 375 -119.5t184 -301.5h-150q-20 113 -131 190q-119 84 -278 84q-176 0 -294 -99.5t-118 -232.5v-624q0 -133 115 -230q121 -102 297 -102q160 0 278 84q111 78 131 190h150q-20 -182 -184.5 -302t-374.5 -120 q-227 0 -393.5 138.5t-166.5 341.5z" />
<glyph unicode="D" horiz-adv-x="1286" d="M102 0v1534h555q227 0 392 -137t165 -342v-576q0 -205 -165.5 -342t-393.5 -137h-553zM250 147h405q176 0 297 103q115 96 115 229v576q0 133 -116.5 232t-293.5 99h-407v-1239z" />
<glyph unicode="E" horiz-adv-x="1093" d="M102 0v1534h910v-148h-762v-555h614v-147h-614v-537h762v-147h-910z" />
<glyph unicode="F" horiz-adv-x="1052" d="M102 0v1534h910v-148h-762v-555h614v-147h-614v-684h-148z" />
<glyph unicode="G" horiz-adv-x="1263" d="M61 455v622q0 205 166 342t394 137q211 0 372 -116q166 -123 187 -305h-150q-20 113 -131 190q-119 84 -278 84q-176 0 -294 -99.5t-118 -232.5v-622q0 -131 117.5 -230.5t294.5 -99.5q180 0 296.5 91t116.5 226v318h-372v147h520v-907h-95l-67 135q-39 -80 -170 -123 q-106 -35 -229 -35q-227 0 -393.5 137.5t-166.5 340.5z" />
<glyph unicode="H" horiz-adv-x="1316" d="M102 0v1534h148v-649h817v649h147v-1534h-147v737h-817v-737h-148z" />
<glyph unicode="I" horiz-adv-x="372" d="M113 0v1534h147v-1534h-147z" />
<glyph unicode="J" horiz-adv-x="1409" d="M41 397h149q20 -113 132 -190q115 -84 276 -84q176 0 293 100q113 94 113 223v940h-594v148h958v-148h-217v-940q0 -201 -164 -336t-389 -135q-213 0 -375 119t-182 303z" />
<glyph unicode="K" horiz-adv-x="1196" d="M102 0v1534h148v-584l622 324q119 63 119 190v70h144v-76q0 -78 -45 -149q-45 -78 -121 -119l-668 -361l662 -481q172 -127 172 -268v-80h-150v55q0 94 -108 176l-627 480v-711h-148z" />
<glyph unicode="L" horiz-adv-x="1077" d="M102 0v1534h148v-1387h786v-147h-934z" />
<glyph unicode="M" horiz-adv-x="1611" d="M102 0l2 1534h177l524 -870l524 870h180v-1534h-147v1300l-520 -864h-72l-522 864l2 -1300h-148z" />
<glyph unicode="N" horiz-adv-x="1382" d="M102 0v1534h152l879 -1278v1278h147v-1534h-139l-891 1278v-1278h-148z" />
<glyph unicode="O" horiz-adv-x="1234" d="M61 455v622q0 203 166 340t391 137t390.5 -137t165.5 -340v-622q0 -201 -165 -338t-391 -137q-225 0 -391 137t-166 338zM209 455q0 -129 117.5 -228.5t291.5 -99.5t291 98.5t117 229.5v622q0 131 -116.5 230.5t-291.5 99.5q-174 0 -291.5 -99.5t-117.5 -230.5v-622z" />
<glyph unicode="P" horiz-adv-x="1275" d="M102 0v1532h580q233 0 382.5 -134t149.5 -331v-72q0 -197 -149.5 -331t-382.5 -134h-432v-530h-148zM250 678h432q178 0 287 98q98 90 98 219v72q0 129 -98 219q-109 98 -287 98h-432v-706z" />
<glyph unicode="Q" horiz-adv-x="1234" d="M61 455v620q0 203 166 340t391 137t390.5 -137t165.5 -340v-620q0 -186 -136 -328q-143 -147 -348 -147v-84q0 -76 96 -76q8 0 19 2h14h115v-135h-115q-125 0 -200.5 54t-75.5 148v93h-6q-207 0 -344 145q-131 139 -132 328zM209 455q0 -143 96 -238q111 -111 313 -111 q199 0 310 111q98 97 98 238v620q0 131 -116.5 230.5t-291.5 99.5q-174 0 -291.5 -99.5t-117.5 -230.5v-620z" />
<glyph unicode="R" horiz-adv-x="1275" d="M102 0v1534h580q233 0 382.5 -134t149.5 -329v-84q0 -119 -67 -231q-104 -176 -328 -215l258 -299q86 -102 86 -209v-33h-149v27q0 92 -88 186l-297 317h-379v-530h-148zM250 678h493q162 0 252 108q72 86 72 201v84q0 127 -98 217q-109 98 -287 98h-432v-708z" />
<glyph unicode="S" horiz-adv-x="1241" d="M61 1085q0 184 163 326.5t392 142.5q213 0 376 -122.5t182 -311.5h-150q-20 119 -131 201q-117 86 -277 86q-176 0 -297 -107q-111 -98 -110 -215q0 -150 164 -192l450 -119q357 -94 357 -334q0 -186 -161 -323t-392 -137t-385 116.5t-174 306.5h149q20 -119 134 -201.5 t274 -82.5q176 0 297 106q111 96 110 215q0 141 -188 193q-236 61 -537 141q-102 31 -170 109q-76 86 -76 202z" />
<glyph unicode="T" horiz-adv-x="976" d="M41 1386v148h895v-148h-369v-1386h-147v1386h-379z" />
<glyph unicode="U" horiz-adv-x="1275" d="M82 449v1085h147v-1085q0 -131 118 -229.5t292 -98.5t291 98t117 230v1085h147v-1085q0 -201 -165 -334t-392 -133q-225 0 -387 131q-168 135 -168 336z" />
<glyph unicode="V" horiz-adv-x="1220" d="M41 1501v33h149v-27q0 -106 23 -164l399 -1044l396 1044q22 55 22 155v9v27h150v-33q0 -127 -54 -266l-471 -1235h-84l-477 1235q-53 137 -53 266z" />
<glyph unicode="W" horiz-adv-x="1726" d="M41 1501v33h149v-27q0 -78 25 -168l258 -933l311 1130h144l311 -1126l274 936q23 76 23 163v27h150v-33q0 -82 -54 -268l-350 -1237h-82l-344 1243l-344 -1243h-78l-340 1235q-53 193 -53 268z" />
<glyph unicode="X" horiz-adv-x="1052" d="M41 0v29q0 78 98 252l295 516l-280 481q-84 143 -84 225v31h151v-21q0 -78 51 -165l244 -402l248 402q51 84 51 165v21h152v-31q0 -82 -84 -225l-279 -479l309 -518q98 -166 99 -252v-29h-150v18q0 59 -69 177l-273 458l-260 -458q-70 -123 -70 -177v-18h-149z" />
<glyph unicode="Y" horiz-adv-x="1163" d="M41 1501v33h149v-23q0 -74 54 -163l336 -574l340 574q53 90 53 163v23h149v-33q0 -86 -41 -158l-428 -735v-608h-147v608l-416 733q-49 84 -49 160z" />
<glyph unicode="Z" horiz-adv-x="1234" d="M82 0v180l901 1206h-901v148h1071v-168l-915 -1219h911v-147h-1067z" />
<glyph unicode="[" horiz-adv-x="655" d="M123 -104v1742h450v-147h-303v-1448h303v-147h-450z" />
<glyph unicode="\" horiz-adv-x="817" d="M41 1638h156l579 -1742h-155z" />
<glyph unicode="]" horiz-adv-x="655" d="M82 43h303v1448h-303v147h450v-1742h-450v147z" />
<glyph unicode="^" horiz-adv-x="677" d="M82 1366l186 186h140l188 -186l-82 -80l-154 152h-38l-156 -156z" />
<glyph unicode="_" horiz-adv-x="1067" d="M61 0h945v-147h-945v147z" />
<glyph unicode="`" horiz-adv-x="352" d="M-55 1491l452 -100v147l-452 100v-147z" />
<glyph unicode="a" horiz-adv-x="1214" d="M61 375q0 205 179 321q143 94 319 95h74q57 -2 92 -3q164 0 258 37q0 156 -82 250q-96 109 -285 109q-150 0 -248 -41t-112 -115h-147q10 154 172 236q135 67 329 67h6q256 0 396 -157q121 -135 121 -345v-829h-97l-28 131q-119 -131 -361 -131h-121q-172 0 -305 88 q-160 104 -160 287zM209 375q0 -98 92 -163t225 -65h121q232 0 338 154v385q-70 -43 -256 -45h-12q-35 0 -88 2h-70q-145 0 -244 -68q-106 -74 -106 -200z" />
<glyph unicode="b" horiz-adv-x="1236" d="M102 0v1534h148v-434q37 106 178 170q117 53 234 53q219 0 366.5 -134t147.5 -331v-418q0 -197 -154 -331t-375 -134q-100 0 -209 35q-125 39 -178 103l-27 -113h-131zM252 438q0 -143 110.5 -228t284.5 -85q168 0 277 96q104 90 104 219v418q0 131 -98 221 q-104 96 -268 97q-172 0 -291 -97.5t-119 -222.5v-418z" />
<glyph unicode="c" horiz-adv-x="1198" d="M61 446v414q0 201 164 336q158 133 379 133q199 0 350 -96q163 -104 183 -268h-152q-23 90 -123 151q-106 66 -258 66q-170 0 -282.5 -96.5t-112.5 -225.5v-414q0 -129 110 -221q115 -98 285 -98q150 0 258 66q98 61 121 149h152q-20 -164 -183 -266q-152 -96 -348 -96 q-221 0 -379 131q-164 137 -164 335z" />
<glyph unicode="d" horiz-adv-x="1236" d="M61 440v418q0 197 147.5 331t366.5 134q117 0 234 -53q141 -63 178 -170v434h148v-1534h-131l-27 113q-53 -63 -178 -103q-109 -35 -209 -35q-221 0 -375 134.5t-154 330.5zM209 440q0 -129 104 -219q109 -96 277 -96q174 0 284.5 85t110.5 228v418q0 125 -118.5 222.5 t-291.5 97.5q-164 0 -265 -93.5t-101 -224.5v-418z" />
<glyph unicode="e" d="M61 442v420q0 197 162 332t381 135t374 -135t155 -332v-317h-924v-103q0 -125 110.5 -210t280.5 -85h344v-147h-328q-225 0 -387 123q-168 127 -168 319zM209 692h776v170q0 127 -104 221q-111 98 -277 99q-168 0 -281.5 -96.5t-113.5 -223.5v-170z" />
<glyph unicode="f" horiz-adv-x="854" d="M61 883v147h172v154q0 164 125 270q119 102 283 102q105 0 193 -53l-107 -110q-35 14 -86 14q-111 0 -185.5 -64.5t-74.5 -158.5v-154h387v-147h-387v-883h-148v883h-172z" />
<glyph unicode="g" horiz-adv-x="1222" d="M61 471v391q0 201 164 336q158 133 379 133q211 0 367 -108q168 -119 168 -301l-2 -916q-2 -195 -163 -329t-380 -134q-197 0 -342 92q-156 100 -174 263h149q20 -88 117.5 -147.5t249.5 -59.5q158 0 276.5 83t118.5 199v74q2 63 2 141q-53 -98 -180 -147 q-96 -37 -207 -37q-221 0 -379 131q-164 135 -164 336zM209 471q0 -129 112.5 -224t282.5 -95q176 0 282.5 85t106.5 212l-2 473q0 102 -104 180q-113 82 -283 82t-282.5 -96.5t-112.5 -225.5v-391z" />
<glyph unicode="h" horiz-adv-x="1255" d="M102 0v1534h148v-414q166 201 409 201q219 0 367 -133t148 -332v-856h-148v856q0 131 -98 223q-104 94 -269 95q-172 0 -290.5 -96.5t-118.5 -221.5v-856h-148z" />
<glyph unicode="i" horiz-adv-x="352" d="M102 -2v1315h148v-1315h-148zM102 1409v127h148v-127h-148z" />
<glyph unicode="j" horiz-adv-x="397" d="M-307 -240l84 121q45 -28 106 -28h4q111 0 185.5 65.5t74.5 157.5v1239h148v-1239q0 -162 -122 -266.5t-286 -104.5q-106 0 -194 55zM147 1407v127h148v-127h-148z" />
<glyph unicode="k" horiz-adv-x="1157" d="M102 0v1534h148v-686h291q168 0 272 94q92 86 92 197v174h148v-174q0 -127 -97 -248q-104 -131 -274 -180l297 -381q137 -174 137 -283v-47h-149v14q0 92 -78 193l-385 493h-254v-700h-148z" />
<glyph unicode="l" horiz-adv-x="352" d="M102 0v1534h148v-1534h-148z" />
<glyph unicode="m" horiz-adv-x="1845" d="M102 0v1313h88l74 -92q93 112 310 112h4q221 0 364 -184q166 184 391 184q221 0 334 -143q96 -123 96 -322v-868h-147v868q0 315 -283 316q-156 0 -240.5 -88t-84.5 -228v-868h-148v866q0 317 -282 318q-156 0 -241 -88t-85 -230v-866h-150z" />
<glyph unicode="n" horiz-adv-x="1255" d="M102 0v1313h121l58 -117q141 137 381 137q219 0 365.5 -134t146.5 -331v-868h-148v868q0 131 -98 222q-104 96 -266 96q-174 0 -292 -97.5t-118 -222.5v-866h-150z" />
<glyph unicode="o" d="M61 444v418q0 219 166 348q152 119 379 119q225 0 376 -128t151 -337v-418q0 -197 -154 -330.5t-375 -133.5q-219 0 -381 134t-162 328zM209 444q0 -123 113.5 -219t281.5 -96t277 98q104 92 104 219v418q0 139 -105.5 228.5t-273.5 89.5q-176 0 -286.5 -89t-110.5 -231 v-418z" />
<glyph unicode="p" horiz-adv-x="1236" d="M102 -287v1600h121l53 -101q53 59 170 95q95 28 194 28h7q221 0 375 -134t154 -331v-415q0 -197 -147.5 -331t-366.5 -134q-293 0 -412 190v-467h-148zM252 457q0 -125 117 -219q121 -100 293 -101q164 0 268 96q98 91 98 222v415q0 129 -106.5 223.5t-274.5 94.5 q-174 0 -284.5 -85t-110.5 -231v-415z" />
<glyph unicode="q" horiz-adv-x="1236" d="M61 455v415q0 197 154 331t375 134q102 0 201 -28q117 -35 170 -95l53 101h121v-1600h-148v467q-119 -190 -412 -190q-219 0 -366.5 134t-147.5 331zM209 455q0 -131 98 -222q104 -96 268 -96q172 0 293 101q117 94 117 219v415q0 145 -110.5 230.5t-284.5 85.5 q-168 0 -274.5 -94.5t-106.5 -223.5v-415z" />
<glyph unicode="r" horiz-adv-x="823" d="M102 0v1331h125l35 -125q72 70 193 111q106 35 207 35q73 -1 141 -17l-47 -141q-45 10 -94 10q-174 0 -293 -97t-119 -222v-885h-148z" />
<glyph unicode="s" d="M61 340h152q25 -88 125 -152q107 -67 250 -67h4q195 0 303 102q86 82 86 183q0 106 -190 145q-205 37 -484 86q-111 20 -176 91t-65 173q0 188 154.5 309t383.5 121q193 0 344 -94q165 -102 185 -264h-152q-25 88 -125 151q-109 70 -254 70q-221 0 -321 -109 q-68 -76 -68 -184q0 -109 123 -131l514 -92q121 -29 197 -98q84 -76 83 -174q0 -188 -154.5 -306t-383.5 -118q-193 0 -344 94q-166 102 -187 264z" />
<glyph unicode="t" horiz-adv-x="833" d="M41 1165v148h172v221h147v-221h388v-148h-388v-819q0 -92 75 -156.5t186 -64.5q63 0 112 29l80 -125q-88 -53 -192 -54q-164 0 -283 103q-125 106 -125 268v819h-172z" />
<glyph unicode="u" horiz-adv-x="1234" d="M82 451v862h147v-862q0 -129 101.5 -222.5t265.5 -93.5q178 0 294 86t116 232v860h147v-1313h-100l-60 121q-104 -137 -395 -137q-219 0 -367.5 135t-148.5 332z" />
<glyph unicode="v" horiz-adv-x="1259" d="M41 1276v37h149v-31q0 -133 39 -211l402 -833l391 813q45 96 45 231v31h152v-37q0 -156 -54 -266l-483 -1010h-102l-492 1026q-47 98 -47 250z" />
<glyph unicode="w" horiz-adv-x="1730" d="M41 1276v37h145v-43q0 -121 29 -203l262 -750l344 996h78l346 -994l268 748q31 86 31 215v31h146v-37q0 -152 -39 -262l-359 -1014h-94l-338 979l-338 -979h-90l-346 1020q-45 133 -45 256z" />
<glyph unicode="x" horiz-adv-x="1103" d="M41 0v35q0 121 98 252l314 415l-256 326q-98 127 -99 252v33h150v-23q0 -82 61 -162l234 -305l227 305q61 82 61 162v23h150v-33q0 -119 -98 -250l-246 -325l328 -420q98 -129 98 -252v-33h-150v20q0 84 -61 164l-305 398l-295 -396q-61 -84 -62 -163v-23h-149z" />
<glyph unicode="y" horiz-adv-x="954" d="M0 -215l84 121q37 -20 86 -21q166 0 244 148l-301 975q-57 182 -58 276v29h152v-23q0 -113 39 -231l243 -774l230 768q45 154 45 233v27h149v-33q0 -80 -57 -274l-293 -994q-37 -123 -147.5 -198.5t-245.5 -75.5q-94 0 -170 47z" />
<glyph unicode="z" horiz-adv-x="1187" d="M82 0l2 176l831 987h-829v148h1020v-168l-844 -996h842v-147h-1022z" />
<glyph unicode="{" horiz-adv-x="530" d="M102 676v164q117 49 117 237v334q0 92 72 158q66 59 158 73v-149q-82 -23 -82 -82v-334q0 -238 -117 -319q117 -70 117 -318v-317q0 -61 82 -84v-150q-92 14 -158 74q-72 68 -72 160v317q0 186 -117 236z" />
<glyph unicode="|" horiz-adv-x="393" d="M123 -106v1744h147v-1744h-147z" />
<glyph unicode="}" horiz-adv-x="530" d="M82 39q82 23 82 84v317q0 248 117 318q-117 82 -117 319v334q0 59 -82 82v149q94 -14 160 -73q72 -66 71 -158v-334q0 -188 115 -237v-164q-115 -49 -115 -236v-317q0 -92 -71 -160q-66 -59 -160 -74v150z" />
<glyph unicode="~" horiz-adv-x="1294" d="M102 707q82 205 273 204q70 0 155 -28l281 -90q45 -14 86 -15q102 0 154 96l141 -47q-82 -203 -274 -202q-70 0 -156 28l-277 90q-47 14 -88 15q-102 0 -153 -96z" />
<glyph unicode="&#xa1;" horiz-adv-x="395" d="M123 -10v1229h149v-1229h-149zM123 1386v150h149v-150h-149z" />
<glyph unicode="&#xa2;" horiz-adv-x="1198" d="M61 477v350q0 182 132.5 315.5t343.5 149.5v111h147v-111q182 -18 308.5 -118.5t144.5 -243.5h-152q-23 92 -123 155q-109 72 -258 72q-170 0 -282.5 -100.5t-112.5 -229.5v-350q0 -131 110 -231q117 -109 285 -109q147 0 258 76q96 68 121 160h152 q-18 -143 -144.5 -243.5t-306.5 -115.5v-123h-147v121q-211 23 -343.5 154t-132.5 311z" />
<glyph unicode="&#xa3;" horiz-adv-x="1265" d="M102 690v148h123v229q0 205 168 340q162 129 389 129h305v-150h-305q-178 0 -293.5 -94t-115.5 -225v-229h614v-148h-614v-545h790v-147h-1059v147h121v545h-123z" />
<glyph unicode="&#xa4;" horiz-adv-x="1155" d="M41 590l41 94h135v170h-176l41 94h135v96q0 193 168 318q154 113 354 113q150 0 275 -70l-84 -111q-84 41 -191 41q-141 0 -252 -73q-127 -84 -127 -218v-96h549l-12 -92h-537v-172h549l-12 -94h-537v-105q0 -131 127 -217q111 -74 252 -73q164 0 267 92l88 -109 q-147 -123 -355 -123q-201 0 -354 115q-168 123 -168 315v105h-176z" />
<glyph unicode="&#xa5;" horiz-adv-x="1204" d="M61 1501v33h150v-23q0 -74 53 -163l336 -574l340 574q53 90 53 163v23h150v-33q0 -86 -41 -158l-428 -735v-246h246v-147h-246v-215h-148v215h-247v147h247v246l-415 733q-49 84 -50 160z" />
<glyph unicode="&#xa8;" horiz-adv-x="847" d="M123 1386v148h205v-148h-205zM506 1386v148h203v-148h-203z" />
<glyph unicode="&#xa9;" horiz-adv-x="1343" d="M82 547v465q0 236 188 389q174 141 402 141q229 0 401 -141q188 -154 189 -389v-465q0 -236 -189 -389q-172 -141 -401 -142q-227 0 -402 142q-188 154 -188 389zM133 547q0 -211 170 -350q158 -129 369 -129t368 129q170 139 170 350v465q0 211 -170 350 q-158 129 -368 129q-211 0 -369 -129q-170 -139 -170 -350v-465zM377 602v352q0 104 87 177t208 73q106 0 190 -56t103 -142h-47q-18 66 -87 109.5t-159 43.5q-104 0 -177 -60.5t-73 -144.5v-352q0 -84 72.5 -144.5t177.5 -60.5q90 0 158.5 44t87.5 110h47 q-18 -86 -102.5 -142.5t-190.5 -56.5q-121 0 -208 73t-87 177z" />
<glyph unicode="&#xaa;" horiz-adv-x="913" d="M82 866q0 143 125 226q100 66 223 65h51q41 -2 66 -2h18q98 2 162 27q0 109 -57 174q-68 78 -199 78q-231 0 -252 -111h-104q8 109 121 166q96 47 235 47q180 0 277 -111q84 -94 83 -239v-582h-67l-21 92q-82 -92 -251 -92h-84q-121 0 -215 62q-111 74 -111 200zM184 866 q0 -70 65.5 -114.5t158.5 -44.5h84q161 -1 237 108v268q-49 -31 -180 -30h-8h-62q-37 2 -49 2q-102 0 -170 -47q-76 -53 -76 -142z" />
<glyph unicode="&#xab;" horiz-adv-x="1042" d="M61 842l465 389v-195l-233 -194l231 -193l2 -192zM498 842l463 389v-195l-232 -194l232 -193v-192z" />
<glyph unicode="&#xad;" horiz-adv-x="653" d="M82 684v147h489v-147h-489z" />
<glyph unicode="&#xae;" horiz-adv-x="1343" d="M82 547v465q0 236 188 389q174 141 402 141q229 0 401 -141q188 -154 189 -389v-465q0 -236 -189 -389q-172 -141 -401 -142q-227 0 -402 142q-188 154 -188 389zM133 547q0 -211 170 -350q158 -129 369 -129t368 129q170 139 170 350v465q0 211 -170 350 q-158 129 -368 129q-211 0 -369 -129q-170 -139 -170 -350v-465zM385 352v828h307q125 0 203 -70t78 -172v-47q0 -74 -53 -139q-68 -82 -197 -95l168 -184q53 -57 53 -121h-45q-4 57 -55 113l-174 188h-240v-301h-45zM430 698h252q133 0 199 70q47 51 47 123v47 q0 82 -63.5 139.5t-172.5 57.5h-262v-437z" />
<glyph unicode="&#xaf;" horiz-adv-x="753" d="M123 1454v148h508v-148h-508z" />
<glyph unicode="&#xb0;" horiz-adv-x="739" d="M82 1235q0 129 98 207q84 68 191 67q104 0 188 -67q98 -78 98 -207q0 -127 -98 -205q-84 -68 -188 -67q-106 0 -191 67q-98 78 -98 205zM133 1235q0 -100 80 -164q70 -55 158 -55t157 55q78 64 78 164q0 102 -78 166q-70 55 -157 55q-88 0 -158 -55q-80 -63 -80 -166z " />
<glyph unicode="&#xb4;" horiz-adv-x="352" d="M-55 1391v147l452 100v-147z" />
<glyph unicode="&#xb6;" horiz-adv-x="1142" d="M82 995v76q0 465 424 465h514v-1538h-148v532h-163v-532h-148v532h-55q-424 0 -424 465zM229 995q0 -143 37 -209q61 -109 240 -108h55v711h-55q-178 0 -240 -109q-37 -63 -37 -209v-76zM709 678h163v711h-163v-711z" />
<glyph unicode="&#xb7;" horiz-adv-x="352" d="M102 682v152h148v-152h-148z" />
<glyph unicode="&#xb8;" horiz-adv-x="555" d="M123 -227h49q135 0 135 184v43h125v-43q0 -127 -61 -209q-72 -96 -205 -96h-43v121z" />
<glyph unicode="&#xba;" horiz-adv-x="913" d="M82 920v292q0 152 115 242q106 84 266 84q158 0 263 -89t105 -237v-290q0 -139 -107.5 -232.5t-262.5 -93.5q-152 0 -265.5 93t-113.5 231zM184 920q0 -86 80 -154t197 -68q119 0 193.5 67t74.5 157v290q0 98 -73.5 161t-192.5 63q-123 0 -201 -62.5t-78 -161.5v-292z " />
<glyph unicode="&#xbb;" horiz-adv-x="1042" d="M82 457v192l233 193l-233 194v195l465 -389zM518 457v192l234 193l-234 194v195l463 -389z" />
<glyph unicode="&#xbf;" horiz-adv-x="1304" d="M123 442q0 182 235 359q63 45 177 131q94 80 94 153v134h147v-134q0 -98 -69 -186q-51 -66 -166 -147q-61 -43 -176 -136q-94 -86 -95 -174q0 -123 122 -221t292 -98q176 0 297 100q115 96 115 226q0 14 -2 34l143 31q6 -37 6 -65q0 -203 -167 -338.5t-392 -135.5 q-217 0 -385 134q-176 136 -176 333zM629 1386v146h149v-146h-149z" />
<glyph unicode="&#xc0;" horiz-adv-x="1355" d="M20 0l590 1534h142l583 -1534h-151l-152 385h-704l-148 -385h-160zM377 518h606l-303 789zM426 1888l2 -147l451 -103v150z" />
<glyph unicode="&#xc1;" horiz-adv-x="1355" d="M20 0l590 1534h142l583 -1534h-151l-152 385h-704l-148 -385h-160zM377 518h606l-303 789zM467 1638v150l453 100v-147z" />
<glyph unicode="&#xc2;" horiz-adv-x="1355" d="M20 0l590 1534h142l583 -1534h-151l-152 385h-704l-148 -385h-160zM377 518h606l-303 789zM385 1772l289 120l282 -118l-57 -136l-225 95l-232 -99z" />
<glyph unicode="&#xc3;" horiz-adv-x="1355" d="M20 0l590 1534h142l583 -1534h-151l-152 385h-704l-148 -385h-160zM164 1720q82 203 272 203q70 0 156 -27l278 -90q47 -16 88 -16q102 0 154 98l141 -47q-82 -203 -274 -203q-70 0 -156 27l-278 90q-45 16 -86 17q-104 0 -154 -99zM377 518h606l-303 789z" />
<glyph unicode="&#xc4;" horiz-adv-x="1355" d="M20 0l590 1534h142l583 -1534h-151l-152 385h-704l-148 -385h-160zM377 518h606l-303 789zM389 1638v148h205v-148h-205zM772 1638v148h203v-148h-203z" />
<glyph unicode="&#xc5;" horiz-adv-x="1355" d="M20 0l590 1534h142l583 -1534h-151l-152 385h-704l-148 -385h-160zM377 518h606l-303 789zM399 1903q0 121 95 198q82 68 190 68q106 0 190 -68q92 -78 93 -198q0 -121 -93 -197q-84 -68 -190 -68q-109 0 -190 68q-94 76 -95 197zM514 1903q0 -61 49 -105.5t121 -44.5 q70 0 119 44t49 106q0 63 -49 106t-119 43q-72 0 -121 -43t-49 -106z" />
<glyph unicode="&#xc6;" horiz-adv-x="1961" d="M31 -2l651 1540h1198v-147h-762v-557h615v-148l-615 -2v-537h762v-147l-907 -2l-2 389h-613l-168 -389h-159zM403 520h568v871h-187z" />
<glyph unicode="&#xc7;" horiz-adv-x="1282" d="M82 453v624q0 205 166 342t393 137q211 0 375 -119.5t184 -301.5h-149q-20 113 -131 190q-119 84 -279 84q-176 0 -294 -99.5t-118 -232.5v-624q0 -133 115 -230q121 -102 297 -102q160 0 279 84q111 78 131 190h149q-18 -170 -162.5 -285.5t-341.5 -134.5 q0 -125 -61 -208q-72 -94 -205 -95h-43v121h49q137 0 137 184q-207 23 -346 154q-145 135 -145 322z" />
<glyph unicode="&#xc8;" horiz-adv-x="1093" d="M102 0v1534h910v-148h-762v-555h614v-147h-614v-537h762v-147h-910zM344 1888l2 -147l451 -103v150z" />
<glyph unicode="&#xc9;" horiz-adv-x="1093" d="M102 0v1534h910v-148h-762v-555h614v-147h-614v-537h762v-147h-910zM365 1638v150l452 100v-147z" />
<glyph unicode="&#xca;" horiz-adv-x="1093" d="M102 0v1534h910v-148h-762v-555h614v-147h-614v-537h762v-147h-910zM283 1772l288 120l283 -118l-57 -136l-226 95l-231 -99z" />
<glyph unicode="&#xcb;" horiz-adv-x="1093" d="M102 0v1534h910v-148h-762v-555h614v-147h-614v-537h762v-147h-910zM266 1638v148h205v-148h-205zM649 1638v148h203v-148h-203z" />
<glyph unicode="&#xcc;" horiz-adv-x="372" d="M-45 1888l2 -147l451 -103v150zM113 0v1534h147v-1534h-147z" />
<glyph unicode="&#xcd;" horiz-adv-x="372" d="M-31 1638v150l453 100v-147zM113 0v1534h147v-1534h-147z" />
<glyph unicode="&#xce;" horiz-adv-x="372" d="M-94 1772l289 120l282 -118l-57 -136l-223 95l-234 -99zM113 0v1534h147v-1534h-147z" />
<glyph unicode="&#xcf;" horiz-adv-x="372" d="M-82 1638v148h205v-148h-205zM113 0v1534h147v-1534h-147zM240 1638v148h202v-148h-202z" />
<glyph unicode="&#xd1;" horiz-adv-x="1382" d="M102 0v1534h152l879 -1278v1278h147v-1534h-139l-891 1278v-1278h-148zM143 1720q82 203 273 203q70 0 155 -27l279 -90q47 -16 88 -16q102 0 154 98l141 -47q-82 -203 -275 -203q-70 0 -155 27l-279 90q-45 16 -86 17q-104 0 -153 -99z" />
<glyph unicode="&#xd2;" horiz-adv-x="1234" d="M61 455v622q0 203 166 340t391 137t390.5 -137t165.5 -340v-622q0 -201 -165 -338t-391 -137q-225 0 -391 137t-166 338zM209 455q0 -129 117.5 -228.5t291.5 -99.5t291 98.5t117 229.5v622q0 131 -116.5 230.5t-291.5 99.5q-174 0 -291.5 -99.5t-117.5 -230.5v-622z M365 1888l2 -147l450 -103v150z" />
<glyph unicode="&#xd3;" horiz-adv-x="1234" d="M61 455v622q0 203 166 340t391 137t390.5 -137t165.5 -340v-622q0 -201 -165 -338t-391 -137q-225 0 -391 137t-166 338zM209 455q0 -129 117.5 -228.5t291.5 -99.5t291 98.5t117 229.5v622q0 131 -116.5 230.5t-291.5 99.5q-174 0 -291.5 -99.5t-117.5 -230.5v-622z M406 1638v150l452 100v-147z" />
<glyph unicode="&#xd4;" horiz-adv-x="1234" d="M61 455v622q0 203 166 340t391 137t390.5 -137t165.5 -340v-622q0 -201 -165 -338t-391 -137q-225 0 -391 137t-166 338zM209 455q0 -129 117.5 -228.5t291.5 -99.5t291 98.5t117 229.5v622q0 131 -116.5 230.5t-291.5 99.5q-174 0 -291.5 -99.5t-117.5 -230.5v-622z M328 1772l288 120l283 -118l-57 -136l-226 95l-231 -99z" />
<glyph unicode="&#xd5;" horiz-adv-x="1234" d="M61 455v622q0 203 166 340t391 137t390.5 -137t165.5 -340v-622q0 -201 -165 -338t-391 -137q-225 0 -391 137t-166 338zM82 1720q82 203 272 203q70 0 156 -27l278 -90q47 -16 89 -16q102 0 153 98l141 -47q-82 -203 -274 -203q-70 0 -156 27l-278 90q-45 16 -86 17 q-104 0 -154 -99zM209 455q0 -129 117.5 -228.5t291.5 -99.5t291 98.5t117 229.5v622q0 131 -116.5 230.5t-291.5 99.5q-174 0 -291.5 -99.5t-117.5 -230.5v-622z" />
<glyph unicode="&#xd6;" horiz-adv-x="1234" d="M61 455v622q0 203 166 340t391 137t390.5 -137t165.5 -340v-622q0 -201 -165 -338t-391 -137q-225 0 -391 137t-166 338zM209 455q0 -129 117.5 -228.5t291.5 -99.5t291 98.5t117 229.5v622q0 131 -116.5 230.5t-291.5 99.5q-174 0 -291.5 -99.5t-117.5 -230.5v-622z M322 1638v148h204v-148h-204zM705 1638v148h202v-148h-202z" />
<glyph unicode="&#xd7;" horiz-adv-x="798" d="M123 588l172 172l-172 172l104 104l172 -172l170 170l105 -104l-170 -170l172 -172l-105 -105l-172 172l-172 -172z" />
<glyph unicode="&#xd8;" horiz-adv-x="1275" d="M82 455v622q0 203 166 340t391 137q104 0 170 -22l39 115h156l-58 -170q248 -156 248 -400v-622q0 -201 -165 -338t-390 -137q-96 0 -186 26l-39 -121h-156l59 181q-106 47 -170.5 158.5t-64.5 230.5zM229 455q0 -66 29 -131q37 -82 107 -121l397 1192q-37 14 -78 14 q-10 0 -25 -2h-20q-174 0 -292 -99.5t-118 -230.5v-622zM500 143q86 -16 139 -16q174 0 291 98.5t117 229.5v622q0 68 -35 140q-41 84 -113 120z" />
<glyph unicode="&#xd9;" horiz-adv-x="1275" d="M82 449v1085h147v-1085q0 -131 118 -229.5t292 -98.5t291 98t117 230v1085h147v-1085q0 -201 -165 -334t-392 -133q-225 0 -387 131q-168 135 -168 336zM406 1888l2 -147l450 -103v150z" />
<glyph unicode="&#xda;" horiz-adv-x="1275" d="M82 449v1085h147v-1085q0 -131 118 -229.5t292 -98.5t291 98t117 230v1085h147v-1085q0 -201 -165 -334t-392 -133q-225 0 -387 131q-168 135 -168 336zM426 1638v150l453 100v-147z" />
<glyph unicode="&#xdb;" horiz-adv-x="1275" d="M82 449v1085h147v-1085q0 -131 118 -229.5t292 -98.5t291 98t117 230v1085h147v-1085q0 -201 -165 -334t-392 -133q-225 0 -387 131q-168 135 -168 336zM344 1772l289 120l282 -118l-57 -136l-225 95l-232 -99z" />
<glyph unicode="&#xdc;" horiz-adv-x="1275" d="M82 449v1085h147v-1085q0 -131 118 -229.5t292 -98.5t291 98t117 230v1085h147v-1085q0 -201 -165 -334t-392 -133q-225 0 -387 131q-168 135 -168 336zM328 1638v148h204v-148h-204zM711 1638v148h202v-148h-202z" />
<glyph unicode="&#xdd;" horiz-adv-x="1163" d="M41 1501v33h149v-23q0 -74 54 -163l336 -574l340 574q53 90 53 163v23h149v-33q0 -86 -41 -158l-428 -735v-608h-147v608l-416 733q-49 84 -49 160zM365 1638v150l452 100v-147z" />
<glyph unicode="&#xdf;" horiz-adv-x="1167" d="M102 -111v1221q0 197 146 317q133 113 323 113h25q190 0 324 -113q143 -121 143 -317q0 -207 -203 -322q111 -53 170 -157q55 -95 55 -201q0 -193 -148.5 -310.5t-383.5 -117.5h-59v148h59q180 0 281.5 75.5t101.5 204.5q0 100 -80 193.5t-186 93.5h-176v147h174 q111 0 179 71t68 175q0 283 -319 283h-27q-319 0 -319 -283v-1221h-148z" />
<glyph unicode="&#xe0;" horiz-adv-x="1214" d="M61 375q0 205 179 321q143 94 319 95h74q57 -2 92 -3q164 0 258 37q0 156 -82 250q-96 109 -285 109q-150 0 -248 -41t-112 -115h-147q10 154 172 236q137 68 335 67q256 0 396 -157q121 -135 121 -345v-829h-97l-28 131q-119 -131 -361 -131h-121q-172 0 -305 88 q-160 104 -160 287zM209 375q0 -98 92 -163t225 -65h121q232 0 338 154v385q-70 -43 -256 -45h-12q-35 0 -88 2h-70q-145 0 -244 -68q-106 -74 -106 -200zM395 1491l453 -100v147l-453 100v-147z" />
<glyph unicode="&#xe1;" horiz-adv-x="1214" d="M61 375q0 205 179 321q143 94 319 95h74q57 -2 92 -3q164 0 258 37q0 156 -82 250q-96 109 -285 109q-150 0 -248 -41t-112 -115h-147q10 154 172 236q137 68 335 67q256 0 396 -157q121 -135 121 -345v-829h-97l-28 131q-119 -131 -361 -131h-121q-172 0 -305 88 q-160 104 -160 287zM209 375q0 -98 92 -163t225 -65h121q232 0 338 154v385q-70 -43 -256 -45h-12q-35 0 -88 2h-70q-145 0 -244 -68q-106 -74 -106 -200zM389 1391v147l453 100v-147z" />
<glyph unicode="&#xe2;" horiz-adv-x="1214" d="M61 375q0 205 179 321q143 94 319 95h74q57 -2 92 -3q164 0 258 37q0 156 -82 250q-96 109 -285 109q-150 0 -248 -41t-112 -115h-147q10 154 172 236q137 68 335 67q256 0 396 -157q121 -135 121 -345v-829h-97l-28 131q-119 -131 -361 -131h-121q-172 0 -305 88 q-160 104 -160 287zM209 375q0 -98 92 -163t225 -65h121q232 0 338 154v385q-70 -43 -256 -45h-12q-35 0 -88 2h-70q-145 0 -244 -68q-106 -74 -106 -200zM328 1520l288 122l283 -118l-57 -135l-224 94l-233 -99z" />
<glyph unicode="&#xe3;" horiz-adv-x="1214" d="M61 375q0 205 179 321q143 94 319 95h74q57 -2 92 -3q164 0 258 37q0 156 -82 250q-96 109 -285 109q-150 0 -248 -41t-112 -115h-147q10 154 172 236q137 68 335 67q256 0 396 -157q121 -135 121 -345v-829h-97l-28 131q-119 -131 -361 -131h-121q-172 0 -305 88 q-160 104 -160 287zM61 1468q82 203 273 203q70 0 155 -29l279 -90q47 -14 88 -14q102 0 154 96l141 -45q-82 -203 -274 -203q-70 0 -156 27l-279 90q-45 14 -86 15q-102 0 -153 -97zM209 375q0 -98 92 -163t225 -65h121q232 0 338 154v385q-70 -43 -256 -45h-12 q-35 0 -88 2h-70q-145 0 -244 -68q-106 -74 -106 -200z" />
<glyph unicode="&#xe4;" horiz-adv-x="1214" d="M61 375q0 205 179 321q143 94 319 95h74q57 -2 92 -3q164 0 258 37q0 156 -82 250q-96 109 -285 109q-150 0 -248 -41t-112 -115h-147q10 154 172 236q137 68 335 67q256 0 396 -157q121 -135 121 -345v-829h-97l-28 131q-119 -131 -361 -131h-121q-172 0 -305 88 q-160 104 -160 287zM209 375q0 -98 92 -163t225 -65h121q232 0 338 154v385q-70 -43 -256 -45h-12q-35 0 -88 2h-70q-145 0 -244 -68q-106 -74 -106 -200zM319 1386v148h205v-148h-205zM702 1386v148h203v-148h-203z" />
<glyph unicode="&#xe5;" horiz-adv-x="1214" d="M61 375q0 205 179 321q143 94 319 95h74q57 -2 92 -3q164 0 258 37q0 156 -82 250q-96 109 -285 109q-150 0 -248 -41t-112 -115h-147q10 154 172 236q137 68 335 67q256 0 396 -157q121 -135 121 -345v-829h-97l-28 131q-119 -131 -361 -131h-121q-172 0 -305 88 q-160 104 -160 287zM209 375q0 -98 92 -163t225 -65h121q232 0 338 154v385q-70 -43 -256 -45h-12q-35 0 -88 2h-70q-145 0 -244 -68q-106 -74 -106 -200zM334 1655q0 121 94 196q82 68 190 68q106 0 191 -68q94 -76 94 -196q0 -121 -94 -197q-85 -67 -191 -67 q-109 0 -190 67q-94 76 -94 197zM449 1655q0 -63 49 -106.5t120 -43.5q70 0 120 43t50 107q0 63 -50 106t-120 43q-72 0 -120.5 -43t-48.5 -106z" />
<glyph unicode="&#xe6;" horiz-adv-x="2136" d="M82 381q0 203 178 317q141 92 320 93h73q57 -2 92 -3q164 0 263 39q0 141 -93 240q-104 115 -292 115q-150 0 -258 -68q-100 -61 -115 -143h-150q12 162 183 266q154 92 340 92q324 0 440 -231q70 113 215 176q129 55 268 55q219 0 374 -135t155 -330v-319h-922v-99 q0 -125 110.5 -212t280.5 -87h344v-147h-344q-303 0 -457 195q-49 -86 -192 -144q-125 -51 -227 -51h-121q-172 0 -305 90q-160 106 -160 291zM229 381q0 -100 93.5 -167t224.5 -67h121q229 0 338 158l4 383q-129 -47 -260 -47h-13q-35 0 -88 2h-69q-147 0 -244 -65 q-106 -72 -107 -197zM1149 690l778 2v172q0 127 -104 219q-111 98 -277 99q-168 0 -279.5 -96.5t-113.5 -221.5z" />
<glyph unicode="&#xe7;" horiz-adv-x="1239" d="M82 446v414q0 201 164 336q158 133 379 133q199 0 350 -96q162 -104 182 -268h-151q-23 90 -123 151q-106 66 -258 66q-170 0 -283 -96.5t-113 -225.5v-414q0 -129 111 -221q115 -98 285 -98q150 0 258 66q98 61 121 149h151q-20 -152 -162 -252q-133 -94 -317 -108 q-4 -121 -66 -199q-72 -90 -200 -90h-43v121h49q131 0 135 170q-197 23 -330 149q-139 131 -139 313z" />
<glyph unicode="&#xe8;" d="M61 442v420q0 197 162 332t381 135t374 -135t155 -332v-317h-924v-103q0 -125 110.5 -210t280.5 -85h344v-147h-328q-225 0 -387 123q-168 127 -168 319zM209 692h776v170q0 127 -104 221q-111 98 -277 99q-168 0 -281.5 -96.5t-113.5 -223.5v-170zM395 1491l453 -100 v147l-453 100v-147z" />
<glyph unicode="&#xe9;" d="M61 442v420q0 197 162 332t381 135t374 -135t155 -332v-317h-924v-103q0 -125 110.5 -210t280.5 -85h344v-147h-328q-225 0 -387 123q-168 127 -168 319zM209 692h776v170q0 127 -104 221q-111 98 -277 99q-168 0 -281.5 -96.5t-113.5 -223.5v-170zM389 1391v147l453 100 v-147z" />
<glyph unicode="&#xea;" d="M61 442v420q0 197 162 332t381 135t374 -135t155 -332v-317h-924v-103q0 -125 110.5 -210t280.5 -85h344v-147h-328q-225 0 -387 123q-168 127 -168 319zM209 692h776v170q0 127 -104 221q-111 98 -277 99q-168 0 -281.5 -96.5t-113.5 -223.5v-170zM317 1520l289 122 l283 -118l-58 -135l-223 94l-233 -99z" />
<glyph unicode="&#xeb;" d="M61 442v420q0 197 162 332t381 135t374 -135t155 -332v-317h-924v-103q0 -125 110.5 -210t280.5 -85h344v-147h-328q-225 0 -387 123q-168 127 -168 319zM209 692h776v170q0 127 -104 221q-111 98 -277 99q-168 0 -281.5 -96.5t-113.5 -223.5v-170zM309 1386v148h205 v-148h-205zM692 1386v148h203v-148h-203z" />
<glyph unicode="&#xec;" horiz-adv-x="352" d="M-47 1491l453 -100v147l-453 100v-147zM102 -2v1315h148v-1315h-148z" />
<glyph unicode="&#xed;" horiz-adv-x="352" d="M-47 1391v147l453 100v-147zM102 -2v1315h148v-1315h-148z" />
<glyph unicode="&#xee;" horiz-adv-x="352" d="M-102 1520l288 122l283 -118l-57 -135l-226 94l-231 -99zM102 -2v1315h148v-1315h-148z" />
<glyph unicode="&#xef;" horiz-adv-x="352" d="M-82 1386v148h205v-148h-205zM102 -2v1315h148v-1315h-148zM240 1386v148h202v-148h-202z" />
<glyph unicode="&#xf1;" horiz-adv-x="1255" d="M102 0v1313h121l58 -117q141 137 381 137q219 0 365.5 -134t146.5 -331v-868h-148v868q0 131 -98 222q-104 96 -266 96q-174 0 -292 -97.5t-118 -222.5v-866h-150zM102 1468q82 203 273 203q70 0 155 -29l279 -90q47 -14 88 -14q102 0 154 96l141 -45q-82 -203 -274 -203 q-70 0 -156 27l-279 90q-45 14 -86 15q-102 0 -153 -97z" />
<glyph unicode="&#xf2;" d="M61 444v418q0 219 166 348q152 119 379 119q225 0 376 -128t151 -337v-418q0 -197 -154 -330.5t-375 -133.5q-219 0 -381 134t-162 328zM209 444q0 -123 113.5 -219t281.5 -96t277 98q104 92 104 219v418q0 139 -105.5 228.5t-273.5 89.5q-176 0 -286.5 -89t-110.5 -231 v-418zM375 1491l452 -100v147l-452 100v-147z" />
<glyph unicode="&#xf3;" d="M61 444v418q0 219 166 348q152 119 379 119q225 0 376 -128t151 -337v-418q0 -197 -154 -330.5t-375 -133.5q-219 0 -381 134t-162 328zM209 444q0 -123 113.5 -219t281.5 -96t277 98q104 92 104 219v418q0 139 -105.5 228.5t-273.5 89.5q-176 0 -286.5 -89t-110.5 -231 v-418zM389 1391v147l453 100v-147z" />
<glyph unicode="&#xf4;" d="M61 444v418q0 219 166 348q152 119 379 119q225 0 376 -128t151 -337v-418q0 -197 -154 -330.5t-375 -133.5q-219 0 -381 134t-162 328zM209 444q0 -123 113.5 -219t281.5 -96t277 98q104 92 104 219v418q0 139 -105.5 228.5t-273.5 89.5q-176 0 -286.5 -89t-110.5 -231 v-418zM317 1520l289 122l283 -118l-58 -135l-223 94l-233 -99z" />
<glyph unicode="&#xf5;" d="M61 444v418q0 219 166 348q152 119 379 119q225 0 376 -128t151 -337v-418q0 -197 -154 -330.5t-375 -133.5q-219 0 -381 134t-162 328zM68 1468q82 203 272 203q70 0 156 -29l278 -90q47 -14 88 -14q102 0 154 96l141 -45q-82 -203 -274 -203q-70 0 -156 27l-278 90 q-45 14 -87 15q-102 0 -153 -97zM209 444q0 -123 113.5 -219t281.5 -96t277 98q104 92 104 219v418q0 139 -105.5 228.5t-273.5 89.5q-176 0 -286.5 -89t-110.5 -231v-418z" />
<glyph unicode="&#xf6;" d="M61 444v418q0 219 166 348q152 119 379 119q225 0 376 -128t151 -337v-418q0 -197 -154 -330.5t-375 -133.5q-219 0 -381 134t-162 328zM209 444q0 -123 113.5 -219t281.5 -96t277 98q104 92 104 219v418q0 139 -105.5 228.5t-273.5 89.5q-176 0 -286.5 -89t-110.5 -231 v-418zM309 1386v148h205v-148h-205zM692 1386v148h203v-148h-203z" />
<glyph unicode="&#xf7;" horiz-adv-x="804" d="M82 686v148h641v-148h-641zM332 385v152h147v-152h-147zM332 971v151h147v-151h-147z" />
<glyph unicode="&#xf8;" d="M61 444v418q0 197 172 334q164 131 385 131h27q18 2 29 2q82 0 131 -18l51 125h154l-80 -197q203 -156 203 -375v-418q0 -197 -154 -330.5t-375 -133.5h-26.5h-28.5q-74 0 -131 18l-41 -109h-154l72 172q-109 61 -171.5 164t-62.5 217zM209 444q0 -66 31 -129 q37 -80 110 -116l395 966q-47 16 -88 17h-20q-14 -2 -19 -2q-172 0 -290.5 -96.5t-118.5 -221.5v-418zM479 141q49 -12 90 -12h18.5h16.5q168 0 274.5 94t106.5 223v418q0 154 -111 242z" />
<glyph unicode="&#xf9;" horiz-adv-x="1234" d="M82 451v862h147v-862q0 -129 101.5 -222.5t265.5 -93.5q178 0 294 86t116 232v860h147v-1313h-100l-60 121q-104 -137 -395 -137q-219 0 -367.5 135t-148.5 332zM395 1491l453 -100v147l-453 100v-147z" />
<glyph unicode="&#xfa;" horiz-adv-x="1234" d="M82 451v862h147v-862q0 -129 101.5 -222.5t265.5 -93.5q178 0 294 86t116 232v860h147v-1313h-100l-60 121q-104 -137 -395 -137q-219 0 -367.5 135t-148.5 332zM389 1391v147l453 100v-147z" />
<glyph unicode="&#xfb;" horiz-adv-x="1234" d="M82 451v862h147v-862q0 -129 101.5 -222.5t265.5 -93.5q178 0 294 86t116 232v860h147v-1313h-100l-60 121q-104 -137 -395 -137q-219 0 -367.5 135t-148.5 332zM317 1520l289 122l283 -118l-58 -135l-223 94l-233 -99z" />
<glyph unicode="&#xfc;" horiz-adv-x="1234" d="M82 451v862h147v-862q0 -129 101.5 -222.5t265.5 -93.5q178 0 294 86t116 232v860h147v-1313h-100l-60 121q-104 -137 -395 -137q-219 0 -367.5 135t-148.5 332zM319 1386v148h205v-148h-205zM702 1386v148h203v-148h-203z" />
<glyph unicode="&#xfd;" horiz-adv-x="954" d="M0 -215l84 121q37 -20 86 -21q166 0 244 148l-301 975q-57 182 -58 276v29h152v-23q0 -113 39 -231l243 -774l230 768q45 154 45 233v27h149v-33q0 -80 -57 -274l-293 -994q-37 -123 -147.5 -198.5t-245.5 -75.5q-94 0 -170 47zM287 1391v147l452 100v-147z" />
<glyph unicode="&#xff;" horiz-adv-x="954" d="M0 -215l84 121q37 -20 86 -21q166 0 244 148l-301 975q-57 182 -58 276v29h152v-23q0 -113 39 -231l243 -774l230 768q45 154 45 233v27h149v-33q0 -80 -57 -274l-293 -994q-37 -123 -147.5 -198.5t-245.5 -75.5q-94 0 -170 47zM184 1386v148h205v-148h-205zM567 1386 v148h203v-148h-203z" />
<glyph unicode="&#x152;" horiz-adv-x="2039" d="M82 455v622q0 203 166 340t391 137q301 0 410 -168v150h909v-147h-762v-558h614v-147h-614v-537h762v-147h-909v166q-158 -186 -410 -186q-225 0 -391 137t-166 338zM229 455q0 -129 118 -228.5t292 -99.5t291 98.5t117 229.5v622q0 131 -117 230.5t-291 99.5t-292 -99.5 t-118 -230.5v-622z" />
<glyph unicode="&#x153;" horiz-adv-x="2115" d="M61 444v418q0 199 172 334q164 133 385 133q135 0 257 -58.5t188 -160.5q57 102 199 164q129 55 264 55q219 0 373.5 -135t154.5 -330v-319h-921v-123q0 -121 114.5 -198t284.5 -77l342 3v-150h-350q-324 0 -463 203q-190 -221 -457 -221q-219 0 -381 134t-162 328z M209 444q0 -123 113.5 -219t281.5 -96q147 0 258 82q123 90 123 235v418q0 143 -115 234q-104 84 -252 84q-172 0 -290.5 -97.5t-118.5 -222.5v-418zM1133 692h774v172q0 127 -105 219q-111 98 -276 99q-162 0 -279 -91.5t-114 -213.5v-185z" />
<glyph unicode="&#x178;" horiz-adv-x="1163" d="M41 1501v33h149v-23q0 -74 54 -163l336 -574l340 574q53 90 53 163v23h149v-33q0 -86 -41 -158l-428 -735v-608h-147v608l-416 733q-49 84 -49 160zM276 1638v148h205v-148h-205zM659 1638v148h203v-148h-203z" />
<glyph unicode="&#x2c6;" horiz-adv-x="817" d="M123 1520l289 122l282 -118l-57 -135l-225 94l-232 -99z" />
<glyph unicode="&#x2dc;" horiz-adv-x="1335" d="M123 1468q82 203 272 203q70 0 156 -29l278 -90q47 -14 89 -14q102 0 153 96l141 -45q-82 -203 -274 -203q-70 0 -156 27l-278 90q-45 14 -86 15q-102 0 -154 -97z" />
<glyph unicode="&#x2000;" horiz-adv-x="1084" />
<glyph unicode="&#x2001;" horiz-adv-x="2169" />
<glyph unicode="&#x2002;" horiz-adv-x="1084" />
<glyph unicode="&#x2003;" horiz-adv-x="2169" />
<glyph unicode="&#x2004;" horiz-adv-x="723" />
<glyph unicode="&#x2005;" horiz-adv-x="542" />
<glyph unicode="&#x2006;" horiz-adv-x="361" />
<glyph unicode="&#x2007;" horiz-adv-x="361" />
<glyph unicode="&#x2008;" horiz-adv-x="271" />
<glyph unicode="&#x2009;" horiz-adv-x="433" />
<glyph unicode="&#x200a;" horiz-adv-x="120" />
<glyph unicode="&#x2010;" horiz-adv-x="653" d="M82 684v147h489v-147h-489z" />
<glyph unicode="&#x2011;" horiz-adv-x="653" d="M82 684v147h489v-147h-489z" />
<glyph unicode="&#x2012;" horiz-adv-x="653" d="M82 684v147h489v-147h-489z" />
<glyph unicode="&#x2013;" horiz-adv-x="1001" d="M82 684v147h838v-147h-838z" />
<glyph unicode="&#x2014;" horiz-adv-x="1515" d="M82 684v147h1352v-147h-1352z" />
<glyph unicode="&#x2018;" horiz-adv-x="468" d="M102 958v355q0 96 72 158.5t176 62.5h17v-148h-17q-57 0 -84 -51q-16 -29 -16 -53v-174h112v-150h-260z" />
<glyph unicode="&#x2019;" horiz-adv-x="468" d="M102 958v148h17q57 0 84 51q16 31 16 55v174l-113 -2v150h261v-354q0 -94 -73 -158t-175 -64h-17z" />
<glyph unicode="&#x201a;" horiz-adv-x="468" d="M102 -279h17q57 0 84 52q16 29 16 53v174h-113v150h261v-355q0 -96 -73 -158.5t-175 -62.5h-17v147z" />
<glyph unicode="&#x201c;" horiz-adv-x="821" d="M102 958v355q0 96 72 158.5t176 62.5h17v-148h-17q-57 0 -84 -51q-16 -29 -16 -53v-174h112v-150h-260zM455 958v355q0 96 71.5 158.5t173.5 62.5h19v-148h-19q-57 0 -82 -51q-16 -29 -16 -53v-174h113v-150h-260z" />
<glyph unicode="&#x201d;" horiz-adv-x="821" d="M102 958v148h17q57 0 84 51q16 31 16 55v174l-113 -2v150h261v-354q0 -94 -73 -158t-175 -64h-17zM455 958v148h16q57 0 84 51q16 31 16 55v174l-112 -2v150h260v-354q0 -94 -73 -158t-175 -64h-16z" />
<glyph unicode="&#x201e;" horiz-adv-x="821" d="M102 -281h17q57 0 84 52q16 31 16 55v174l-113 -2v149h261v-354q0 -94 -73 -157.5t-175 -63.5h-17v147zM455 -281h16q57 0 84 52q16 31 16 55v174l-112 -2v149h260v-354q0 -94 -73 -157.5t-175 -63.5h-16v147z" />
<glyph unicode="&#x2022;" horiz-adv-x="684" d="M102 758q0 92 76 153q70 59 164 60q94 0 167 -60.5t73 -152.5t-73 -152.5t-167 -60.5t-164 59q-76 61 -76 154z" />
<glyph unicode="&#x2026;" horiz-adv-x="956" d="M102 0v152h148v-152h-148zM403 0v152h148v-152h-148zM707 0v152h147v-152h-147z" />
<glyph unicode="&#x202f;" horiz-adv-x="433" />
<glyph unicode="&#x2039;" horiz-adv-x="608" d="M61 842l465 389v-195l-233 -194l231 -193l2 -192z" />
<glyph unicode="&#x203a;" horiz-adv-x="608" d="M82 457v192l233 193l-233 194v195l465 -389z" />
<glyph unicode="&#x205f;" horiz-adv-x="542" />
<glyph unicode="&#x2122;" horiz-adv-x="1497" d="M61 1489v45h465v-45h-207v-782h-45v782h-213zM643 707v827h70l305 -510l305 510h72v-827h-45v784l-322 -539h-18l-324 537l2 -782h-45z" />
<glyph unicode="&#x25fc;" horiz-adv-x="1310" d="M0 0v1311h1311v-1311h-1311z" />
</font>
</defs>
</svg>
