<?xml version="1.0" encoding="utf-8"?>
<!-- Generator: Adobe Illustrator 16.0.0, SVG Export Plug-In . SVG Version: 6.00 Build 0)  -->
<!DOCTYPE svg PUBLIC "-//W3C//DTD SVG 1.1//EN" "http://www.w3.org/Graphics/SVG/1.1/DTD/svg11.dtd">
<svg version="1.1" id="Layer_1" xmlns="http://www.w3.org/2000/svg" xmlns:xlink="http://www.w3.org/1999/xlink" x="0px" y="0px"
	 width="24px" height="24px" viewBox="0 0 24 24" enable-background="new 0 0 24 24" xml:space="preserve">
<g>
	
		<image overflow="visible" opacity="0.7" width="26" height="26" xlink:href="84547EEECB911059.png"  transform="matrix(1 0 0 1 -1.0112 -0.0112)">
	</image>
	<g>
		<path fill="#0C6A80" d="M7.563,1.923c-3.361,0-4.724,0-5.273,0c-0.333,0-0.368,0-0.368,0s0,1.297,0,5.903
			c0,9.588,4.775,14.251,14.626,14.251c4.626,0,5.528,0,5.528,0s0-0.014,0-0.262c0-0.463,0-1.748,0-5.304
			C22.077,6.51,16.793,1.923,7.563,1.923z"/>
	</g>
</g>
<linearGradient id="SVGID_1_" gradientUnits="userSpaceOnUse" x1="5.855" y1="18.1455" x2="11.5703" y2="12.43">
	<stop  offset="0" style="stop-color:#0D5363"/>
	<stop  offset="1" style="stop-color:#0C6A80"/>
</linearGradient>
<path fill="url(#SVGID_1_)" d="M2.437,2.414c0,1.275,0,5.374,0,5.374c0,9.286,4.637,13.8,14.175,13.8h4.95
	C21.562,21.587,2.437,8.951,2.437,2.414z"/>
<linearGradient id="SVGID_2_" gradientUnits="userSpaceOnUse" x1="10.7222" y1="13.2559" x2="17.6397" y2="6.4206">
	<stop  offset="0" style="stop-color:#0C6A80"/>
	<stop  offset="0.0551" style="stop-color:#0E758D"/>
	<stop  offset="0.1277" style="stop-color:#10809A"/>
	<stop  offset="1" style="stop-color:#0EA4C6"/>
</linearGradient>
<path fill="url(#SVGID_2_)" d="M21.627,16.512c0-9.381-4.733-14.138-14.063-14.138H2.374c0,0,2.089,0.079,0,0.079
	C2.315,6.661,21.611,17.189,21.611,21.627C21.611,19.219,21.627,16.512,21.627,16.512z"/>
<linearGradient id="SVGID_3_" gradientUnits="userSpaceOnUse" x1="10.7222" y1="13.2568" x2="17.6403" y2="6.421">
	<stop  offset="0" style="stop-color:#F7F8FF;stop-opacity:0"/>
	<stop  offset="0.9104" style="stop-color:#F7F8FF;stop-opacity:0.9104"/>
	<stop  offset="1" style="stop-color:#F7F8FF"/>
</linearGradient>
<path fill="url(#SVGID_3_)" fill-opacity="0.4" d="M21.628,16.512c0-9.381-4.733-14.138-14.064-14.138h-5.19c0,0,2.09,0.079,0,0.079
	C2.315,6.661,21.612,17.189,21.612,21.627C21.612,19.219,21.628,16.512,21.628,16.512z"/>
</svg>
