<?xml version="1.0" encoding="utf-8"?>
<!-- Generator: Adobe Illustrator 17.0.0, SVG Export Plug-In . SVG Version: 6.00 Build 0)  -->
<!DOCTYPE svg PUBLIC "-//W3C//DTD SVG 1.1//EN" "http://www.w3.org/Graphics/SVG/1.1/DTD/svg11.dtd">
<svg version="1.1" id="Layer_1" xmlns="http://www.w3.org/2000/svg" xmlns:xlink="http://www.w3.org/1999/xlink" x="0px" y="0px"
	 width="28.761px" height="29.243px" viewBox="0 0 28.761 29.243" enable-background="new 0 0 28.761 29.243" xml:space="preserve">
<g>
	<path fill="#FFFFFF" d="M5.567,4.425C5.567-0.085,0,0,0,0s0,0.807,0,4.116c0,3.306,5.567,4.101,5.567,4.101
		C5.567,7.72,5.567,5.93,5.567,4.425z"/>
</g>
<g>
	<path fill="#FFFFFF" d="M17.897,8.476H5.59L0.023,8.466v14.059c0,2.3,1.362,4.068,4.088,5.3c2.109,0.945,4.485,1.417,7.129,1.417
		h6.656c7.243,0,10.864-2.272,10.864-6.819v-7.23C28.761,10.714,25.139,8.476,17.897,8.476z M23.195,21.87
		c0,1.669-1.759,2.505-5.274,2.505h-6.173c-1.343,0-2.567-0.13-3.676-0.391c-1.654-0.396-2.481-1.026-2.481-1.891v-8.749h12.372
		c3.489,0,5.233,0.78,5.233,2.342V21.87z"/>
</g>
</svg>
